<?xml version="1.0" encoding="UTF-8"?>
<!-- Created with Inkscape (http://www.inkscape.org/) -->
<svg width="200mm" height="200mm" version="1.1" viewBox="0 0 200 200" xmlns="http://www.w3.org/2000/svg">
<g id="hex1" fill="#FF0000">
 <polygon points="100,50 108.66,55 108.66,65 100,70 91.34,65 91.34,55" fill="#FF0000" fill-opacity="0.5"/>
 <polygon points="100,50 108.66,55 108.66,65 100,70 91.34,65 91.34,55" fill="#FF0000" fill-opacity="0.5" transform="rotate(10 100 100)"/>
 <polygon points="100,50 108.66,55 108.66,65 100,70 91.34,65 91.34,55" fill="#FF0000" fill-opacity="0.5" transform="rotate(20 100 100)"/>
 <polygon points="100,50 108.66,55 108.66,65 100,70 91.34,65 91.34,55" fill="#FF0000" fill-opacity="0.5" transform="rotate(30 100 100)"/>
 <polygon points="100,50 108.66,55 108.66,65 100,70 91.34,65 91.34,55" fill="#FF0000" fill-opacity="0.5" transform="rotate(40 100 100)"/>
 <polygon points="100,50 108.66,55 108.66,65 100,70 91.34,65 91.34,55" fill="#FF0000" fill-opacity="0.5" transform="rotate(50 100 100)"/>
 <polygon points="100,50 108.66,55 108.66,65 100,70 91.34,65 91.34,55" fill="#FF0000" fill-opacity="0.5" transform="rotate(60 100 100)"/>
 <polygon points="100,50 108.66,55 108.66,65 100,70 91.34,65 91.34,55" fill="#FF0000" fill-opacity="0.5" transform="rotate(70 100 100)"/>
 <polygon points="100,50 108.66,55 108.66,65 100,70 91.34,65 91.34,55" fill="#FF0000" fill-opacity="0.5" transform="rotate(80 100 100)"/>
 <polygon points="100,50 108.66,55 108.66,65 100,70 91.34,65 91.34,55" fill="#FF0000" fill-opacity="0.5" transform="rotate(90 100 100)"/>
 <polygon points="100,50 108.66,55 108.66,65 100,70 91.34,65 91.34,55" fill="#FF0000" fill-opacity="0.5" transform="rotate(100 100 100)"/>
 <polygon points="100,50 108.66,55 108.66,65 100,70 91.34,65 91.34,55" fill="#FF0000" fill-opacity="0.5" transform="rotate(110 100 100)"/>
 <polygon points="100,50 108.66,55 108.66,65 100,70 91.34,65 91.34,55" fill="#FF0000" fill-opacity="0.5" transform="rotate(120 100 100)"/>
 <polygon points="100,50 108.66,55 108.66,65 100,70 91.34,65 91.34,55" fill="#FF0000" fill-opacity="0.5" transform="rotate(130 100 100)"/>
 <polygon points="100,50 108.66,55 108.66,65 100,70 91.34,65 91.34,55" fill="#FF0000" fill-opacity="0.5" transform="rotate(140 100 100)"/>
 <polygon points="100,50 108.66,55 108.66,65 100,70 91.34,65 91.34,55" fill="#FF0000" fill-opacity="0.5" transform="rotate(150 100 100)"/>
 <polygon points="100,50 108.66,55 108.66,65 100,70 91.34,65 91.34,55" fill="#FF0000" fill-opacity="0.5" transform="rotate(160 100 100)"/>
 <polygon points="100,50 108.66,55 108.66,65 100,70 91.34,65 91.34,55" fill="#FF0000" fill-opacity="0.5" transform="rotate(170 100 100)"/>
 <polygon points="100,50 108.66,55 108.66,65 100,70 91.34,65 91.34,55" fill="#FF0000" fill-opacity="0.5" transform="rotate(180 100 100)"/>
 <polygon points="100,50 108.66,55 108.66,65 100,70 91.34,65 91.34,55" fill="#FF0000" fill-opacity="0.5" transform="rotate(-10 100 100)"/>
 <polygon points="100,50 108.66,55 108.66,65 100,70 91.34,65 91.34,55" fill="#FF0000" fill-opacity="0.5" transform="rotate(-20 100 100)"/>
 <polygon points="100,50 108.66,55 108.66,65 100,70 91.34,65 91.34,55" fill="#FF0000" fill-opacity="0.5" transform="rotate(-30 100 100)"/>
 <polygon points="100,50 108.66,55 108.66,65 100,70 91.34,65 91.34,55" fill="#FF0000" fill-opacity="0.5" transform="rotate(-40 100 100)"/>
 <polygon points="100,50 108.66,55 108.66,65 100,70 91.34,65 91.34,55" fill="#FF0000" fill-opacity="0.5" transform="rotate(-50 100 100)"/>
 <polygon points="100,50 108.66,55 108.66,65 100,70 91.34,65 91.34,55" fill="#FF0000" fill-opacity="0.5" transform="rotate(-60 100 100)"/>
 <polygon points="100,50 108.66,55 108.66,65 100,70 91.34,65 91.34,55" fill="#FF0000" fill-opacity="0.5" transform="rotate(-70 100 100)"/>
 <polygon points="100,50 108.66,55 108.66,65 100,70 91.34,65 91.34,55" fill="#FF0000" fill-opacity="0.5" transform="rotate(-80 100 100)"/>
 <polygon points="100,50 108.66,55 108.66,65 100,70 91.34,65 91.34,55" fill="#FF0000" fill-opacity="0.5" transform="rotate(-90 100 100)"/>
 <polygon points="100,50 108.66,55 108.66,65 100,70 91.34,65 91.34,55" fill="#FF0000" fill-opacity="0.5" transform="rotate(-100 100 100)"/>
 <polygon points="100,50 108.66,55 108.66,65 100,70 91.34,65 91.34,55" fill="#FF0000" fill-opacity="0.5" transform="rotate(-110 100 100)"/>
 <polygon points="100,50 108.66,55 108.66,65 100,70 91.34,65 91.34,55" fill="#FF0000" fill-opacity="0.5" transform="rotate(-120 100 100)"/>
 <polygon points="100,50 108.66,55 108.66,65 100,70 91.34,65 91.34,55" fill="#FF0000" fill-opacity="0.5" transform="rotate(-130 100 100)"/>
 <polygon points="100,50 108.66,55 108.66,65 100,70 91.34,65 91.34,55" fill="#FF0000" fill-opacity="0.5" transform="rotate(-140 100 100)"/>
 <polygon points="100,50 108.66,55 108.66,65 100,70 91.34,65 91.34,55" fill="#FF0000" fill-opacity="0.5" transform="rotate(-150 100 100)"/>
 <polygon points="100,50 108.66,55 108.66,65 100,70 91.34,65 91.34,55" fill="#FF0000" fill-opacity="0.5" transform="rotate(-160 100 100)"/>
 <polygon points="100,50 108.66,55 108.66,65 100,70 91.34,65 91.34,55" fill="#FF0000" fill-opacity="0.5" transform="rotate(-170 100 100)"/>
</g>

<g id="hex_in" fill="#FF0000" transform="scale(0.5 0.5) translate(100 100)">
 <polygon points="100,50 108.66,55 108.66,65 100,70 91.34,65 91.34,55" fill="#FF0000" fill-opacity="0.5"/>
 <polygon points="100,50 108.66,55 108.66,65 100,70 91.34,65 91.34,55" fill="#FF0000" fill-opacity="0.5" transform="rotate(10 100 100)"/>
 <polygon points="100,50 108.66,55 108.66,65 100,70 91.34,65 91.34,55" fill="#FF0000" fill-opacity="0.5" transform="rotate(20 100 100)"/>
 <polygon points="100,50 108.66,55 108.66,65 100,70 91.34,65 91.34,55" fill="#FF0000" fill-opacity="0.5" transform="rotate(30 100 100)"/>
 <polygon points="100,50 108.66,55 108.66,65 100,70 91.34,65 91.34,55" fill="#FF0000" fill-opacity="0.5" transform="rotate(40 100 100)"/>
 <polygon points="100,50 108.66,55 108.66,65 100,70 91.34,65 91.34,55" fill="#FF0000" fill-opacity="0.5" transform="rotate(50 100 100)"/>
 <polygon points="100,50 108.66,55 108.66,65 100,70 91.34,65 91.34,55" fill="#FF0000" fill-opacity="0.5" transform="rotate(60 100 100)"/>
 <polygon points="100,50 108.66,55 108.66,65 100,70 91.34,65 91.34,55" fill="#FF0000" fill-opacity="0.5" transform="rotate(70 100 100)"/>
 <polygon points="100,50 108.66,55 108.66,65 100,70 91.34,65 91.34,55" fill="#FF0000" fill-opacity="0.5" transform="rotate(80 100 100)"/>
 <polygon points="100,50 108.66,55 108.66,65 100,70 91.34,65 91.34,55" fill="#FF0000" fill-opacity="0.5" transform="rotate(90 100 100)"/>
 <polygon points="100,50 108.66,55 108.66,65 100,70 91.34,65 91.34,55" fill="#FF0000" fill-opacity="0.5" transform="rotate(100 100 100)"/>
 <polygon points="100,50 108.66,55 108.66,65 100,70 91.34,65 91.34,55" fill="#FF0000" fill-opacity="0.5" transform="rotate(110 100 100)"/>
 <polygon points="100,50 108.66,55 108.66,65 100,70 91.34,65 91.34,55" fill="#FF0000" fill-opacity="0.5" transform="rotate(120 100 100)"/>
 <polygon points="100,50 108.66,55 108.66,65 100,70 91.34,65 91.34,55" fill="#FF0000" fill-opacity="0.5" transform="rotate(130 100 100)"/>
 <polygon points="100,50 108.66,55 108.66,65 100,70 91.34,65 91.34,55" fill="#FF0000" fill-opacity="0.5" transform="rotate(140 100 100)"/>
 <polygon points="100,50 108.66,55 108.66,65 100,70 91.34,65 91.34,55" fill="#FF0000" fill-opacity="0.5" transform="rotate(150 100 100)"/>
 <polygon points="100,50 108.66,55 108.66,65 100,70 91.34,65 91.34,55" fill="#FF0000" fill-opacity="0.5" transform="rotate(160 100 100)"/>
 <polygon points="100,50 108.66,55 108.66,65 100,70 91.34,65 91.34,55" fill="#FF0000" fill-opacity="0.5" transform="rotate(170 100 100)"/>
 <polygon points="100,50 108.66,55 108.66,65 100,70 91.34,65 91.34,55" fill="#FF0000" fill-opacity="0.5" transform="rotate(180 100 100)"/>
 <polygon points="100,50 108.66,55 108.66,65 100,70 91.34,65 91.34,55" fill="#FF0000" fill-opacity="0.5" transform="rotate(-10 100 100)"/>
 <polygon points="100,50 108.66,55 108.66,65 100,70 91.34,65 91.34,55" fill="#FF0000" fill-opacity="0.5" transform="rotate(-20 100 100)"/>
 <polygon points="100,50 108.66,55 108.66,65 100,70 91.34,65 91.34,55" fill="#FF0000" fill-opacity="0.5" transform="rotate(-30 100 100)"/>
 <polygon points="100,50 108.66,55 108.66,65 100,70 91.34,65 91.34,55" fill="#FF0000" fill-opacity="0.5" transform="rotate(-40 100 100)"/>
 <polygon points="100,50 108.66,55 108.66,65 100,70 91.34,65 91.34,55" fill="#FF0000" fill-opacity="0.5" transform="rotate(-50 100 100)"/>
 <polygon points="100,50 108.66,55 108.66,65 100,70 91.34,65 91.34,55" fill="#FF0000" fill-opacity="0.5" transform="rotate(-60 100 100)"/>
 <polygon points="100,50 108.66,55 108.66,65 100,70 91.34,65 91.34,55" fill="#FF0000" fill-opacity="0.5" transform="rotate(-70 100 100)"/>
 <polygon points="100,50 108.66,55 108.66,65 100,70 91.34,65 91.34,55" fill="#FF0000" fill-opacity="0.5" transform="rotate(-80 100 100)"/>
 <polygon points="100,50 108.66,55 108.66,65 100,70 91.34,65 91.34,55" fill="#FF0000" fill-opacity="0.5" transform="rotate(-90 100 100)"/>
 <polygon points="100,50 108.66,55 108.66,65 100,70 91.34,65 91.34,55" fill="#FF0000" fill-opacity="0.5" transform="rotate(-100 100 100)"/>
 <polygon points="100,50 108.66,55 108.66,65 100,70 91.34,65 91.34,55" fill="#FF0000" fill-opacity="0.5" transform="rotate(-110 100 100)"/>
 <polygon points="100,50 108.66,55 108.66,65 100,70 91.34,65 91.34,55" fill="#FF0000" fill-opacity="0.5" transform="rotate(-120 100 100)"/>
 <polygon points="100,50 108.66,55 108.66,65 100,70 91.34,65 91.34,55" fill="#FF0000" fill-opacity="0.5" transform="rotate(-130 100 100)"/>
 <polygon points="100,50 108.66,55 108.66,65 100,70 91.34,65 91.34,55" fill="#FF0000" fill-opacity="0.5" transform="rotate(-140 100 100)"/>
 <polygon points="100,50 108.66,55 108.66,65 100,70 91.34,65 91.34,55" fill="#FF0000" fill-opacity="0.5" transform="rotate(-150 100 100)"/>
 <polygon points="100,50 108.66,55 108.66,65 100,70 91.34,65 91.34,55" fill="#FF0000" fill-opacity="0.5" transform="rotate(-160 100 100)"/>
 <polygon points="100,50 108.66,55 108.66,65 100,70 91.34,65 91.34,55" fill="#FF0000" fill-opacity="0.5" transform="rotate(-170 100 100)"/>
</g>

<g id="hex_out" fill="#FF0000" transform="scale(2 2) translate(-50 -50)">
 <polygon points="100,50 108.66,55 108.66,65 100,70 91.34,65 91.34,55" fill="#FF0000" fill-opacity="0.5"/>
 <polygon points="100,50 108.66,55 108.66,65 100,70 91.34,65 91.34,55" fill="#FF0000" fill-opacity="0.5" transform="rotate(10 100 100)"/>
 <polygon points="100,50 108.66,55 108.66,65 100,70 91.34,65 91.34,55" fill="#FF0000" fill-opacity="0.5" transform="rotate(20 100 100)"/>
 <polygon points="100,50 108.66,55 108.66,65 100,70 91.34,65 91.34,55" fill="#FF0000" fill-opacity="0.5" transform="rotate(30 100 100)"/>
 <polygon points="100,50 108.66,55 108.66,65 100,70 91.34,65 91.34,55" fill="#FF0000" fill-opacity="0.5" transform="rotate(40 100 100)"/>
 <polygon points="100,50 108.66,55 108.66,65 100,70 91.34,65 91.34,55" fill="#FF0000" fill-opacity="0.5" transform="rotate(50 100 100)"/>
 <polygon points="100,50 108.66,55 108.66,65 100,70 91.34,65 91.34,55" fill="#FF0000" fill-opacity="0.5" transform="rotate(60 100 100)"/>
 <polygon points="100,50 108.66,55 108.66,65 100,70 91.34,65 91.34,55" fill="#FF0000" fill-opacity="0.5" transform="rotate(70 100 100)"/>
 <polygon points="100,50 108.66,55 108.66,65 100,70 91.34,65 91.34,55" fill="#FF0000" fill-opacity="0.5" transform="rotate(80 100 100)"/>
 <polygon points="100,50 108.66,55 108.66,65 100,70 91.34,65 91.34,55" fill="#FF0000" fill-opacity="0.5" transform="rotate(90 100 100)"/>
 <polygon points="100,50 108.66,55 108.66,65 100,70 91.34,65 91.34,55" fill="#FF0000" fill-opacity="0.5" transform="rotate(100 100 100)"/>
 <polygon points="100,50 108.66,55 108.66,65 100,70 91.34,65 91.34,55" fill="#FF0000" fill-opacity="0.5" transform="rotate(110 100 100)"/>
 <polygon points="100,50 108.66,55 108.66,65 100,70 91.34,65 91.34,55" fill="#FF0000" fill-opacity="0.5" transform="rotate(120 100 100)"/>
 <polygon points="100,50 108.66,55 108.66,65 100,70 91.34,65 91.34,55" fill="#FF0000" fill-opacity="0.5" transform="rotate(130 100 100)"/>
 <polygon points="100,50 108.66,55 108.66,65 100,70 91.34,65 91.34,55" fill="#FF0000" fill-opacity="0.5" transform="rotate(140 100 100)"/>
 <polygon points="100,50 108.66,55 108.66,65 100,70 91.34,65 91.34,55" fill="#FF0000" fill-opacity="0.5" transform="rotate(150 100 100)"/>
 <polygon points="100,50 108.66,55 108.66,65 100,70 91.34,65 91.34,55" fill="#FF0000" fill-opacity="0.5" transform="rotate(160 100 100)"/>
 <polygon points="100,50 108.66,55 108.66,65 100,70 91.34,65 91.34,55" fill="#FF0000" fill-opacity="0.5" transform="rotate(170 100 100)"/>
 <polygon points="100,50 108.66,55 108.66,65 100,70 91.34,65 91.34,55" fill="#FF0000" fill-opacity="0.5" transform="rotate(180 100 100)"/>
 <polygon points="100,50 108.66,55 108.66,65 100,70 91.34,65 91.34,55" fill="#FF0000" fill-opacity="0.5" transform="rotate(-10 100 100)"/>
 <polygon points="100,50 108.66,55 108.66,65 100,70 91.34,65 91.34,55" fill="#FF0000" fill-opacity="0.5" transform="rotate(-20 100 100)"/>
 <polygon points="100,50 108.66,55 108.66,65 100,70 91.34,65 91.34,55" fill="#FF0000" fill-opacity="0.5" transform="rotate(-30 100 100)"/>
 <polygon points="100,50 108.66,55 108.66,65 100,70 91.34,65 91.34,55" fill="#FF0000" fill-opacity="0.5" transform="rotate(-40 100 100)"/>
 <polygon points="100,50 108.66,55 108.66,65 100,70 91.34,65 91.34,55" fill="#FF0000" fill-opacity="0.5" transform="rotate(-50 100 100)"/>
 <polygon points="100,50 108.66,55 108.66,65 100,70 91.34,65 91.34,55" fill="#FF0000" fill-opacity="0.5" transform="rotate(-60 100 100)"/>
 <polygon points="100,50 108.66,55 108.66,65 100,70 91.34,65 91.34,55" fill="#FF0000" fill-opacity="0.5" transform="rotate(-70 100 100)"/>
 <polygon points="100,50 108.66,55 108.66,65 100,70 91.34,65 91.34,55" fill="#FF0000" fill-opacity="0.5" transform="rotate(-80 100 100)"/>
 <polygon points="100,50 108.66,55 108.66,65 100,70 91.34,65 91.34,55" fill="#FF0000" fill-opacity="0.5" transform="rotate(-90 100 100)"/>
 <polygon points="100,50 108.66,55 108.66,65 100,70 91.34,65 91.34,55" fill="#FF0000" fill-opacity="0.5" transform="rotate(-100 100 100)"/>
 <polygon points="100,50 108.66,55 108.66,65 100,70 91.34,65 91.34,55" fill="#FF0000" fill-opacity="0.5" transform="rotate(-110 100 100)"/>
 <polygon points="100,50 108.66,55 108.66,65 100,70 91.34,65 91.34,55" fill="#FF0000" fill-opacity="0.5" transform="rotate(-120 100 100)"/>
 <polygon points="100,50 108.66,55 108.66,65 100,70 91.34,65 91.34,55" fill="#FF0000" fill-opacity="0.5" transform="rotate(-130 100 100)"/>
 <polygon points="100,50 108.66,55 108.66,65 100,70 91.34,65 91.34,55" fill="#FF0000" fill-opacity="0.5" transform="rotate(-140 100 100)"/>
 <polygon points="100,50 108.66,55 108.66,65 100,70 91.34,65 91.34,55" fill="#FF0000" fill-opacity="0.5" transform="rotate(-150 100 100)"/>
 <polygon points="100,50 108.66,55 108.66,65 100,70 91.34,65 91.34,55" fill="#FF0000" fill-opacity="0.5" transform="rotate(-160 100 100)"/>
 <polygon points="100,50 108.66,55 108.66,65 100,70 91.34,65 91.34,55" fill="#FF0000" fill-opacity="0.5" transform="rotate(-170 100 100)"/>
</g>
</svg>
